<svg xmlns="http://www.w3.org/2000/svg" width="206" height="206" fill="none"><circle cx="103" cy="103" r="95.354" fill="#fff" stroke="#1B47F7" stroke-width="15.292"/><path stroke="#1B47F7" stroke-width="19.115" d="M40.652 40.652h124.696v124.696H40.652z"/><path fill="#1B47F7" d="M97.433 65.19H81.108v16.324h16.325V65.189Zm-16.325 0H64.784v16.324h16.324V65.189Zm0 16.324H64.784v16.325h16.324V81.513Zm0 16.325H64.784v16.324h16.324V97.838Zm0 16.324H64.784v16.325h16.324v-16.325Zm0 16.325H64.784V141.5h16.324v-11.012ZM108 65.19h16.325v16.324H108V65.189Zm16.325 0h16.324v16.324h-16.324V65.189Zm0 16.324h16.324v16.325h-16.324V81.513Zm0 16.325h16.324v16.324h-16.324V97.838Zm0 16.324h16.324v16.325h-16.324v-16.325Zm0 16.325h16.324V141.5h-16.324v-11.012Z"/></svg>